<svg width="81" height="44" viewBox="0 0 81 44" fill="none" xmlns="http://www.w3.org/2000/svg">
<path d="M76.6302 5.78646H80.9122V0H76.6012H76.5434C74.4371 0.0405052 72.4813 0.462914 70.728 1.25566C69.0615 2.0079 67.6091 3.08418 66.4113 4.44978C66.2377 4.64652 66.0757 4.84326 65.9194 5.04579C67.719 7.36037 68.7374 10.2768 68.8127 13.3667C68.9631 9.6171 71.3992 5.90219 76.6302 5.78646Z" fill="black"/>
<path d="M55.2782 27.4857H25.6283C23.5221 27.4452 21.5663 27.0228 19.813 26.23C18.1465 25.4778 16.6941 24.4015 15.4905 23.0359C13.3032 20.5477 12.0996 17.2494 12.0996 13.7428C12.0996 10.2362 13.3032 6.93796 15.4905 4.44978C16.6883 3.08418 18.1407 2.01369 19.8072 1.25566C21.5605 0.462914 23.5163 0.0405052 25.6226 0H25.6804H55.2782H55.3071C57.4134 0.0405052 59.3692 0.462914 61.1225 1.25566C62.789 2.0079 64.2414 3.08418 65.4392 4.44978C67.6265 6.93796 68.8301 10.2362 68.8301 13.7428C68.8301 17.2494 67.6265 20.5477 65.4392 23.0359C64.2414 24.4015 62.789 25.472 61.1225 26.23C59.3692 27.0228 57.4134 27.4452 55.3071 27.4857H55.2782ZM25.7094 21.6992H55.2203C60.6249 21.5835 63.0436 17.6198 63.0436 13.7428C63.0436 9.86591 60.6249 5.90798 55.2203 5.78646H25.7094C20.3048 5.90219 17.8861 9.86591 17.8861 13.7428C17.8861 17.6256 20.3048 21.5835 25.7094 21.6992Z" fill="black"/>
<path d="M4.28777 21.6992C9.69232 21.5835 12.1111 17.6256 12.1111 13.7428C12.1111 9.86013 9.69232 5.90219 4.28777 5.78646H0.00578858V0H4.3167H4.37457C6.48084 0.0405052 8.43666 0.462914 10.19 1.25566C11.8565 2.0079 13.3089 3.08418 14.5067 4.44978C16.6939 6.93796 17.8975 10.242 17.8975 13.7428C17.8975 17.2494 16.6939 20.5477 14.5067 23.0359C13.3089 24.4015 11.8565 25.472 10.1842 26.23C8.43087 27.0228 6.47505 27.4452 4.36878 27.4857H0V21.6992H4.28777Z" fill="black"/>
<path d="M3.98702 43.8145H0.0117188V33.7402H3.98702C5.56672 33.7402 6.8571 34.2032 7.84659 35.129C8.83607 36.0548 9.3337 37.2758 9.3337 38.786C9.3337 40.2963 8.84186 41.5114 7.85237 42.4315C6.86289 43.3573 5.57829 43.8145 3.98702 43.8145ZM3.98702 41.9281C4.95336 41.9281 5.72296 41.6272 6.29003 41.0196C6.8571 40.4178 7.14642 39.6714 7.14642 38.786C7.14642 37.8602 6.86868 37.1022 6.31318 36.512C5.75768 35.9217 4.98229 35.6266 3.98702 35.6266H2.15849V41.9281H3.98702Z" fill="black"/>
<path d="M37.1027 43.8145H34.9443V35.6266H31.999V33.7402H40.0364V35.6266H37.1027V43.8145Z" fill="black"/>
<path d="M51.7369 43.8145H45.3313V33.7402H47.4781V41.9281H51.7369V43.8145Z" fill="black"/>
<path d="M62.8063 43.8145H60.3586L59.7394 42.1075H55.4169L54.7804 43.8145H52.3328L56.2328 33.7402H58.9235L62.8063 43.8145ZM59.1492 40.2211L57.5753 35.887L56.0014 40.2211H59.1492Z" fill="black"/>
<path d="M69.0383 43.8145H63.5701V33.7402H68.8705C69.7847 33.7402 70.5022 33.9891 71.0057 34.4867C71.5149 34.9843 71.7695 35.5919 71.7695 36.3094C71.7695 36.9228 71.6017 37.4378 71.2718 37.8486C70.942 38.2595 70.5254 38.5198 70.0335 38.6182C70.5775 38.6992 71.0346 38.977 71.4107 39.4515C71.7811 39.926 71.972 40.4757 71.972 41.1006C71.972 41.8876 71.7174 42.5357 71.2024 43.0506C70.6816 43.5599 69.9641 43.8145 69.0383 43.8145ZM68.4018 37.7734C68.7663 37.7734 69.0498 37.675 69.2639 37.4725C69.478 37.27 69.5822 37.0096 69.5822 36.6855C69.5822 36.3615 69.4723 36.1011 69.2582 35.8928C69.0441 35.6845 68.7547 35.5803 68.4018 35.5803H65.7111V37.7734H68.4018ZM68.477 41.957C68.882 41.957 69.1945 41.8528 69.426 41.6445C69.6574 41.4362 69.7732 41.1527 69.7732 40.7881C69.7732 40.4583 69.6574 40.1748 69.426 39.9491C69.1945 39.7234 68.8762 39.6077 68.477 39.6077H65.7111V41.9512H68.477V41.957Z" fill="black"/>
<path d="M76.8731 44.0002C75.0793 44.0002 73.6616 43.4678 72.6143 42.3973L73.7773 40.7655C74.6453 41.674 75.71 42.1254 76.9773 42.1254C77.5328 42.1254 77.9609 42.0154 78.2676 41.8013C78.5743 41.5872 78.7305 41.321 78.7305 41.0086C78.7305 40.7366 78.5859 40.5109 78.3024 40.3316C78.013 40.1522 77.6601 40.0191 77.2319 39.9381C76.8037 39.8571 76.3407 39.7413 75.8373 39.5909C75.3339 39.4404 74.8652 39.2668 74.4428 39.0759C74.0146 38.8849 73.6558 38.584 73.3723 38.1674C73.083 37.7566 72.9441 37.2532 72.9441 36.6572C72.9441 35.7892 73.2913 35.0659 73.9856 34.4757C74.68 33.8854 75.6059 33.5903 76.7631 33.5903C78.366 33.5903 79.6737 34.059 80.6922 34.9964L79.5001 36.5704C78.7016 35.8355 77.7295 35.4651 76.5722 35.4651C76.1209 35.4651 75.7679 35.5577 75.5133 35.7371C75.2587 35.9165 75.1372 36.1653 75.1372 36.4778C75.1372 36.7208 75.2818 36.9233 75.5654 37.0911C75.8547 37.2589 76.2076 37.3805 76.6358 37.4615C77.064 37.5425 77.527 37.6582 78.0246 37.8144C78.5222 37.9707 78.9851 38.1443 79.4133 38.341C79.8415 38.5378 80.2003 38.8444 80.4838 39.2611C80.7732 39.6777 80.912 40.1811 80.912 40.7655C80.912 41.7319 80.5649 42.5131 79.8763 43.1091C79.1819 43.6993 78.1808 44.0002 76.8731 44.0002Z" fill="black"/>
<path d="M26.4268 43.9828H15.3863C14.5993 43.9655 13.876 43.8092 13.2221 43.5141C12.603 43.2306 12.0591 42.8313 11.6135 42.3279C10.7976 41.4021 10.3521 40.1753 10.3521 38.8676C10.3521 37.5599 10.8034 36.3331 11.6135 35.4073C12.0591 34.8981 12.603 34.4988 13.2221 34.2153C13.876 33.9202 14.6051 33.7639 15.3863 33.7466H15.4094H26.4326H26.4442C27.2312 33.7639 27.9545 33.9202 28.6083 34.2153C29.2275 34.4988 29.7714 34.8981 30.217 35.4015C31.0329 36.3273 31.4784 37.5541 31.4784 38.8618C31.4784 40.1696 31.0271 41.3963 30.217 42.3221C29.7714 42.8313 29.2275 43.2306 28.6083 43.5141C27.9545 43.8092 27.2254 43.9655 26.4442 43.9828H26.4268ZM15.4152 41.8245H26.4037C28.4174 41.784 29.3201 40.3084 29.3201 38.8618C29.3201 37.4152 28.4174 35.9454 26.4037 35.8991H15.4152C13.4015 35.9396 12.4988 37.4152 12.4988 38.8618C12.5046 40.3084 13.4015 41.784 15.4152 41.8245Z" fill="black"/>
</svg>
