<svg width="32" height="32" viewBox="0 0 80 28" fill="none" xmlns="http://www.w3.org/2000/svg">
<path d="M75.7663 6.25664H80V0.5354H75.7377H75.6805C73.5979 0.575449 71.6641 0.993097 69.9306 1.77691C68.2829 2.52067 66.8469 3.58481 65.6626 4.93503C65.4909 5.12955 65.3307 5.32407 65.1763 5.52432C66.9556 7.81281 67.9625 10.6963 68.0369 13.7515C68.1856 10.0441 70.5943 6.37106 75.7663 6.25664Z" fill="#068FFF"/>
<path d="M54.655 27.7113H25.3394C23.2569 27.6712 21.3231 27.2536 19.5895 26.4698C17.9418 25.726 16.5058 24.6619 15.3158 23.3116C13.1532 20.8515 11.9631 17.5904 11.9631 14.1233C11.9631 10.6563 13.1532 7.39516 15.3158 4.93503C16.5001 3.58481 17.9361 2.52639 19.5838 1.77691C21.3174 0.993097 23.2511 0.575449 25.3337 0.5354H25.3909H54.655H54.6836C56.7661 0.575449 58.6999 0.993097 60.4334 1.77691C62.0812 2.52067 63.5172 3.58481 64.7015 4.93503C66.8641 7.39516 68.0541 10.6563 68.0541 14.1233C68.0541 17.5904 66.8641 20.8515 64.7015 23.3116C63.5172 24.6619 62.0812 25.7203 60.4334 26.4698C58.6999 27.2536 56.7661 27.6712 54.6836 27.7113H54.655ZM25.4195 21.99H54.5978C59.9414 21.8756 62.3329 17.9566 62.3329 14.1233C62.3329 10.2901 59.9414 6.37678 54.5978 6.25664H25.4195C20.0758 6.37106 17.6844 10.2901 17.6844 14.1233C17.6844 17.9623 20.0758 21.8756 25.4195 21.99Z" fill="#068FFF"/>
<path d="M4.23944 21.99C9.58307 21.8756 11.9745 17.9623 11.9745 14.1233C11.9745 10.2844 9.58307 6.37106 4.23944 6.25664H0.00572333V0.5354H4.26804H4.32526C6.40779 0.575449 8.34156 0.993097 10.0751 1.77691C11.7228 2.52067 13.1588 3.58481 14.3431 4.93503C16.5058 7.39516 17.6958 10.662 17.6958 14.1233C17.6958 17.5904 16.5058 20.8515 14.3431 23.3116C13.1588 24.6619 11.7228 25.7203 10.0694 26.4698C8.33584 27.2536 6.40206 27.6712 4.31953 27.7113H0V21.99H4.23944Z" fill="#068FFF"/>
</svg>
