<svg width="86" height="47" viewBox="0 0 86 47" fill="none" xmlns="http://www.w3.org/2000/svg">
<path d="M81.4487 6.15032H85.9999V0H81.418H81.3565C79.1177 0.0430523 77.0389 0.492023 75.1754 1.33462C73.4041 2.13416 71.8603 3.27812 70.5872 4.72959C70.4027 4.9387 70.2305 5.14782 70.0645 5.36308C71.9772 7.82321 73.0597 10.923 73.1396 14.2072C73.2995 10.2218 75.8888 6.27333 81.4487 6.15032Z" fill="#068FFF"/>
<path d="M58.7541 29.214H27.2398C25.0011 29.171 22.9223 28.722 21.0587 27.8794C19.2874 27.0799 17.7437 25.9359 16.4644 24.4844C14.1396 21.8398 12.8604 18.3341 12.8604 14.607C12.8604 10.8799 14.1396 7.37423 16.4644 4.72959C17.7376 3.27812 19.2813 2.14031 21.0526 1.33462C22.9161 0.492023 24.9949 0.0430523 27.2337 0H27.2952H58.7541H58.7848C61.0235 0.0430523 63.1023 0.492023 64.9659 1.33462C66.7372 2.13416 68.2809 3.27812 69.554 4.72959C71.8789 7.37423 73.1581 10.8799 73.1581 14.607C73.1581 18.3341 71.8789 21.8398 69.554 24.4844C68.2809 25.9359 66.7372 27.0737 64.9659 27.8794C63.1023 28.722 61.0235 29.171 58.7848 29.214H58.7541ZM27.3259 23.0637H58.6926C64.437 22.9407 67.0078 18.7277 67.0078 14.607C67.0078 10.4863 64.437 6.27948 58.6926 6.15032H27.3259C21.5815 6.27333 19.0107 10.4863 19.0107 14.607C19.0107 18.7339 21.5815 22.9407 27.3259 23.0637Z" fill="#068FFF"/>
<path d="M4.55739 23.0637C10.3018 22.9407 12.8726 18.7339 12.8726 14.607C12.8726 10.4802 10.3018 6.27333 4.55739 6.15032H0.00615258V0H4.58814H4.64965C6.88837 0.0430523 8.96718 0.492023 10.8307 1.33462C12.602 2.13416 14.1457 3.27812 15.4189 4.72959C17.7437 7.37423 19.023 10.8861 19.023 14.607C19.023 18.3341 17.7437 21.8398 15.4189 24.4844C14.1457 25.9359 12.602 27.0737 10.8246 27.8794C8.96102 28.722 6.88221 29.171 4.6435 29.214H0V23.0637H4.55739Z" fill="#068FFF"/>
<path d="M4.23748 46.5703H0.012207V35.8625H4.23748C5.91652 35.8625 7.28804 36.3546 8.33975 37.3386C9.39145 38.3227 9.92038 39.6204 9.92038 41.2256C9.92038 42.8309 9.3976 44.1224 8.3459 45.1003C7.29419 46.0844 5.92882 46.5703 4.23748 46.5703ZM4.23748 44.5653C5.26459 44.5653 6.08258 44.2454 6.68531 43.5997C7.28804 42.96 7.59556 42.1666 7.59556 41.2256C7.59556 40.2416 7.30034 39.4359 6.70991 38.8086C6.11948 38.1812 5.29534 37.8676 4.23748 37.8676H2.29398V44.5653H4.23748Z" fill="black"/>
<path d="M39.4358 46.5703H37.1417V37.8676H34.0112V35.8625H42.554V37.8676H39.4358V46.5703Z" fill="black"/>
<path d="M54.9901 46.5703H48.1816V35.8625H50.4634V44.5653H54.9901V46.5703Z" fill="black"/>
<path d="M66.7554 46.5703H64.1538L63.4957 44.7559H58.9014L58.2249 46.5703H55.6233L59.7686 35.8625H62.6285L66.7554 46.5703ZM62.8684 42.7509L61.1955 38.1443L59.5226 42.7509H62.8684Z" fill="black"/>
<path d="M73.3794 46.5703H67.5674V35.8625H73.2011C74.1728 35.8625 74.9355 36.127 75.4706 36.6559C76.0118 37.1849 76.2824 37.8307 76.2824 38.5933C76.2824 39.2452 76.104 39.7926 75.7535 40.2293C75.4029 40.666 74.9601 40.9427 74.4373 41.0473C75.0154 41.1334 75.5013 41.4286 75.9011 41.9329C76.2947 42.4372 76.4977 43.0215 76.4977 43.6858C76.4977 44.5222 76.227 45.211 75.6797 45.7584C75.1261 46.2997 74.3635 46.5703 73.3794 46.5703ZM72.7029 40.1493C73.0904 40.1493 73.3917 40.0448 73.6193 39.8295C73.8469 39.6142 73.9576 39.3375 73.9576 38.9931C73.9576 38.6486 73.8407 38.3719 73.6131 38.1505C73.3856 37.9291 73.0781 37.8183 72.7029 37.8183H69.843V40.1493H72.7029ZM72.7829 44.596C73.2134 44.596 73.5455 44.4853 73.7915 44.2639C74.0375 44.0425 74.1605 43.7411 74.1605 43.3536C74.1605 43.0031 74.0375 42.7017 73.7915 42.4618C73.5455 42.222 73.2072 42.099 72.7829 42.099H69.843V44.5899H72.7829V44.596Z" fill="black"/>
<path d="M81.7071 46.7671C79.8005 46.7671 78.2936 46.2012 77.1804 45.0634L78.4166 43.329C79.3392 44.2946 80.4709 44.7744 81.8178 44.7744C82.4082 44.7744 82.8633 44.6575 83.1893 44.4299C83.5153 44.2024 83.6813 43.9195 83.6813 43.5873C83.6813 43.2983 83.5276 43.0584 83.2262 42.8678C82.9187 42.6771 82.5435 42.5356 82.0884 42.4495C81.6333 42.3634 81.1412 42.2404 80.6061 42.0805C80.0711 41.9206 79.5729 41.7361 79.1239 41.5331C78.6688 41.3302 78.2875 41.0104 77.9861 40.5675C77.6786 40.1309 77.531 39.5958 77.531 38.9623C77.531 38.0398 77.9 37.271 78.638 36.6436C79.3761 36.0163 80.3601 35.7026 81.5902 35.7026C83.2938 35.7026 84.6838 36.2008 85.7663 37.1972L84.4993 38.8701C83.6506 38.089 82.6173 37.6953 81.3873 37.6953C80.9075 37.6953 80.5324 37.7937 80.2617 37.9844C79.9911 38.1751 79.862 38.4395 79.862 38.7716C79.862 39.03 80.0157 39.2452 80.3171 39.4236C80.6246 39.6019 80.9998 39.7311 81.4549 39.8172C81.91 39.9033 82.402 40.0263 82.931 40.1924C83.4599 40.3584 83.9519 40.5429 84.4071 40.7521C84.8622 40.9612 85.2435 41.2871 85.5449 41.73C85.8524 42.1728 86 42.7079 86 43.329C86 44.3561 85.631 45.1864 84.8991 45.8199C84.161 46.4473 83.097 46.7671 81.7071 46.7671Z" fill="black"/>
<path d="M28.0885 46.7486H16.3537C15.5173 46.7301 14.7485 46.5641 14.0535 46.2504C13.3954 45.949 12.8173 45.5247 12.3437 44.9896C11.4765 44.0055 11.0029 42.7017 11.0029 41.3117C11.0029 39.9217 11.4827 38.6178 12.3437 37.6338C12.8173 37.0926 13.3954 36.6682 14.0535 36.3668C14.7485 36.0532 15.5234 35.8871 16.3537 35.8687H16.3783H28.0947H28.107C28.9434 35.8871 29.7122 36.0532 30.4072 36.3668C31.0653 36.6682 31.6434 37.0926 32.117 37.6276C32.9842 38.6117 33.4578 39.9156 33.4578 41.3055C33.4578 42.6955 32.978 43.9994 32.117 44.9834C31.6434 45.5247 31.0653 45.949 30.4072 46.2504C29.7122 46.5641 28.9373 46.7301 28.107 46.7486H28.0885ZM16.3845 44.4545H28.0639C30.2042 44.4115 31.1637 42.8431 31.1637 41.3055C31.1637 39.768 30.2042 38.2058 28.0639 38.1566H16.3845C14.2441 38.1996 13.2847 39.768 13.2847 41.3055C13.2908 42.8431 14.2441 44.4115 16.3845 44.4545Z" fill="#068FFF"/>
</svg>
