<svg width="509" height="101" viewBox="0 0 509 101" fill="none" xmlns="http://www.w3.org/2000/svg">
<path d="M6.75027 34.0837H0V0.904594H6.99663V22.3441L22.2217 0.904594H29.4154V34.0837H22.4188V11.8482L6.75027 34.0837Z" fill="black"/>
<path d="M65.4587 34.0837H58.4128V20.1554H42.8921V34.0837H35.8955V0.904594H42.8921V13.9374H58.4128V0.904594H65.4587V34.0837Z" fill="black"/>
<path d="M101.499 34.0837H94.4526V20.1554H78.9319V34.0837H71.9353V0.904594H78.9319V13.9374H94.4526V0.904594H101.499V34.0837Z" fill="black"/>
<path d="M202.723 34.0837H184.886V0.904594H202.181C205.17 0.904594 207.486 1.73366 209.128 3.39178C210.803 5.01674 211.641 7.00649 211.641 9.36103C211.641 11.3839 211.099 13.0752 210.015 14.4349C208.931 15.7945 207.584 16.6402 205.975 16.9718C207.748 17.2371 209.243 18.1491 210.458 19.7077C211.674 21.2664 212.281 23.0737 212.281 25.1298C212.281 27.7165 211.444 29.8554 209.768 31.5467C208.093 33.238 205.745 34.0837 202.723 34.0837ZM200.653 14.1862C201.836 14.1862 202.772 13.8545 203.462 13.1913C204.151 12.528 204.496 11.6658 204.496 10.6046C204.496 9.54342 204.135 8.6812 203.412 8.01794C202.723 7.32153 201.803 6.97333 200.653 6.97333H191.883V14.1862H200.653ZM200.899 27.9652C202.213 27.9652 203.248 27.6336 204.004 26.9703C204.759 26.2739 205.137 25.3288 205.137 24.1349C205.137 23.0405 204.759 22.1286 204.004 21.399C203.248 20.6363 202.213 20.2549 200.899 20.2549H191.883V27.9652H200.899Z" fill="black"/>
<path d="M248.205 34.0837H240.223L238.203 28.4626H224.111L222.041 34.0837H214.059L226.772 0.904594H235.542L248.205 34.0837ZM236.281 22.2446L231.157 7.9682L226.032 22.2446H236.281Z" fill="black"/>
<path d="M276.763 40.2021V34.0837H251.24V0.904594H258.236V27.8657H273.757V0.904594H280.803V27.8657H283.759V40.2021H276.763Z" fill="black"/>
<path d="M294.607 34.0837H287.857V0.904594H294.854V22.3441L310.079 0.904594H317.272V34.0837H310.276V11.8482L294.607 34.0837Z" fill="black"/>
<path d="M330.503 34.0837H323.752V0.904594H330.749V22.3441L345.974 0.904594H353.168V34.0837H346.171V11.8482L330.503 34.0837Z" fill="black"/>
<path d="M17.8365 94.8815H0V61.7025H17.2945C20.2837 61.7025 22.5995 62.5315 24.2419 64.1896C25.9171 65.8146 26.7547 67.8044 26.7547 70.1589C26.7547 72.1818 26.2127 73.8731 25.1288 75.2327C24.0448 76.5924 22.698 77.4381 21.0884 77.7697C22.8622 78.035 24.3568 78.947 25.5722 80.5056C26.7876 82.0642 27.3953 83.8716 27.3953 85.9276C27.3953 88.5143 26.5576 90.6533 24.8824 92.3446C23.2071 94.0359 20.8585 94.8815 17.8365 94.8815ZM15.7671 74.984C16.9496 74.984 17.8858 74.6524 18.5756 73.9892C19.2654 73.3259 19.6103 72.4637 19.6103 71.4025C19.6103 70.3413 19.249 69.4791 18.5263 68.8158C17.8365 68.1194 16.9167 67.7712 15.7671 67.7712H6.99663V74.984H15.7671ZM16.0134 88.763C17.3273 88.763 18.3621 88.4314 19.1176 87.7682C19.8731 87.0718 20.2508 86.1266 20.2508 84.9328C20.2508 83.8384 19.8731 82.9264 19.1176 82.1969C18.3621 81.4341 17.3273 81.0528 16.0134 81.0528H6.99663V88.763H16.0134Z" fill="black"/>
<path d="M73.4127 94.8815H64.7901L54.8371 81.5999L52.275 84.6841V94.8815H45.2783V61.7025H52.275V76.5261L63.9032 61.7025H72.5258L59.4687 77.2722L73.4127 94.8815Z" fill="black"/>
<path d="M107.25 94.8815H99.2678L97.2477 89.2605H83.1558L81.0864 94.8815H73.1043L85.8165 61.7025H94.587L107.25 94.8815ZM95.326 83.0425L90.2017 68.7661L85.0775 83.0425H95.326Z" fill="black"/>
<path d="M115.606 94.8815H107.033L120.927 77.2722L107.87 61.7025H116.493L126.939 75.0338V61.7025H133.985V75.0338L144.381 61.7025H153.053L139.996 77.2722L153.891 94.8815H145.317L135.364 81.5999L133.985 83.2912V94.8815H126.939V83.2912L125.559 81.5999L115.606 94.8815Z" fill="black"/>
<path d="M155.18 101V89.2107C156.428 89.0449 157.397 88.7133 158.087 88.2159C158.81 87.7184 159.467 86.707 160.058 85.1815C160.649 83.656 161.109 81.4839 161.438 78.6651L163.359 61.7025H186.714V88.6636H189.67V101H182.674V94.8815H162.177V101H155.18ZM168.385 79.1625C167.925 83.4405 166.595 86.6075 164.394 88.6636H179.668V67.9204H169.666L168.385 79.1625Z" fill="black"/>
<path d="M209.338 95.4784C204.378 95.4784 200.272 93.8701 197.02 90.6533C193.801 87.4034 192.191 83.2912 192.191 78.3169C192.191 73.3425 193.801 69.2469 197.02 66.0302C200.272 62.7802 204.378 61.1553 209.338 61.1553C214.331 61.1553 218.437 62.7637 221.656 65.9804C224.908 69.1972 226.534 73.3093 226.534 78.3169C226.534 83.3244 224.908 87.4365 221.656 90.6533C218.437 93.8701 214.331 95.4784 209.338 95.4784ZM202.095 86.1266C203.935 88.1827 206.349 89.2107 209.338 89.2107C212.327 89.2107 214.742 88.1827 216.581 86.1266C218.421 84.0705 219.34 81.4673 219.34 78.3169C219.34 75.1664 218.421 72.5632 216.581 70.5071C214.742 68.451 212.327 67.423 209.338 67.423C206.349 67.423 203.935 68.451 202.095 70.5071C200.288 72.5632 199.385 75.1664 199.385 78.3169C199.385 81.4673 200.288 84.0705 202.095 86.1266Z" fill="black"/>
<path d="M267.068 94.8815H260.022V71.6512L250.759 94.8815H247.704L238.441 71.6512V94.8815H231.444V61.7025H241.249L249.231 81.7492L257.213 61.7025H267.068V94.8815Z" fill="black"/>
<path d="M315.765 94.8815H308.719V67.9204H293.198V94.8815H286.201V61.7025H315.765V94.8815Z" fill="black"/>
<path d="M328.991 94.8815H322.241V61.7025H329.238V83.142L344.463 61.7025H351.657V94.8815H344.66V72.6461L328.991 94.8815Z" fill="black"/>
<path d="M386.271 94.8815H377.648L367.695 81.5999L365.133 84.6841V94.8815H358.137V61.7025H365.133V76.5261L376.761 61.7025H385.384L372.327 77.2722L386.271 94.8815Z" fill="black"/>
<path d="M403.066 95.4784C398.073 95.4784 393.902 93.8866 390.551 90.703C387.233 87.4863 385.575 83.3576 385.575 78.3169C385.575 73.2762 387.233 69.164 390.551 65.9804C393.902 62.7637 398.073 61.1553 403.066 61.1553C409.209 61.1553 413.791 63.858 416.813 69.2635L410.802 72.2481C410.079 70.8553 409.012 69.7112 407.599 68.8158C406.22 67.8873 404.709 67.423 403.066 67.423C400.077 67.423 397.613 68.451 395.675 70.5071C393.737 72.5632 392.768 75.1664 392.768 78.3169C392.768 81.4673 393.737 84.0705 395.675 86.1266C397.613 88.1827 400.077 89.2107 403.066 89.2107C404.709 89.2107 406.22 88.763 407.599 87.8677C409.012 86.9723 410.079 85.8116 410.802 84.3856L416.813 87.3205C413.693 92.7591 409.11 95.4784 403.066 95.4784Z" fill="black"/>
<path d="M444.234 94.8815H420.978V61.7025H444.234V67.9204H427.974V74.9343H443.889V81.1523H427.974V88.6636H444.234V94.8815Z" fill="black"/>
<path d="M447.733 95.4784V89.2107C449.507 89.2107 450.87 88.4977 451.822 87.0718C452.775 85.6126 453.498 82.8104 453.99 78.6651L455.912 61.7025H479.267V94.8815H472.221V67.9204H462.219L460.938 79.1625C460.544 82.5119 459.952 85.2976 459.164 87.5194C458.409 89.7082 457.423 91.3663 456.208 92.4938C455.025 93.6213 453.777 94.4007 452.463 94.8318C451.149 95.2629 449.572 95.4784 447.733 95.4784Z" fill="black"/>
<path d="M509 94.8815H485.744V61.7025H509V67.9204H492.74V74.9343H508.655V81.1523H492.74V88.6636H509V94.8815Z" fill="black"/>
<path d="M161.539 35.0048H124.818C122.21 34.9526 119.787 34.4144 117.617 33.4039C115.552 32.4428 113.753 31.075 112.267 29.3384C109.558 26.1709 108.066 21.9679 108.066 17.505C108.066 13.0412 109.559 8.83726 112.269 5.66784C113.754 3.93081 115.554 2.56247 117.618 1.60095C119.788 0.589998 122.21 0.0513247 124.818 0H161.573C164.182 0.0513247 166.605 0.589997 168.775 1.60001C170.839 2.56105 172.639 3.92893 174.124 5.66502C176.833 8.83255 178.325 13.0351 178.325 17.4984C178.325 21.9622 176.832 26.1662 174.122 29.336C172.637 31.0731 170.837 32.4414 168.773 33.4029C166.603 34.4139 164.18 34.9526 161.573 35.0039H161.539V35.0048ZM124.923 27.6357H161.468C168.161 27.4884 171.158 22.4421 171.158 17.4989C171.158 12.5599 168.163 7.51741 161.468 7.36956H124.923C118.229 7.51694 115.232 12.5632 115.232 17.5059C115.232 22.4449 118.228 27.4874 124.923 27.6357Z" fill="#068FFF"/>
</svg>
