<svg width="20" height="20" viewBox="0 0 20 20" fill="none" xmlns="http://www.w3.org/2000/svg">
<g clip-path="url(#clip0_6_6711)">
<path d="M4.16675 4.58329C4.16675 3.80974 4.47404 3.06788 5.02102 2.5209C5.568 1.97392 6.30987 1.66663 7.08342 1.66663H10.0001V7.49996H7.08342C6.30987 7.49996 5.568 7.19267 5.02102 6.64569C4.47404 6.09871 4.16675 5.35684 4.16675 4.58329Z" stroke="#068FFF" stroke-width="2" stroke-linecap="round" stroke-linejoin="round"/>
<path d="M10 1.66663H12.9167C13.2997 1.66663 13.679 1.74207 14.0328 1.88864C14.3867 2.03522 14.7082 2.25006 14.9791 2.5209C15.2499 2.79174 15.4647 3.11327 15.6113 3.46713C15.7579 3.821 15.8333 4.20027 15.8333 4.58329C15.8333 4.96632 15.7579 5.34559 15.6113 5.69945C15.4647 6.05332 15.2499 6.37485 14.9791 6.64569C14.7082 6.91653 14.3867 7.13137 14.0328 7.27794C13.679 7.42452 13.2997 7.49996 12.9167 7.49996H10V1.66663Z" stroke="#068FFF" stroke-width="2" stroke-linecap="round" stroke-linejoin="round"/>
<path d="M10 10.4167C10 10.0336 10.0754 9.65437 10.222 9.30051C10.3686 8.94664 10.5834 8.62511 10.8543 8.35427C11.1251 8.08343 11.4466 7.86859 11.8005 7.72202C12.1544 7.57544 12.5336 7.5 12.9167 7.5C13.2997 7.5 13.679 7.57544 14.0328 7.72202C14.3867 7.86859 14.7082 8.08343 14.9791 8.35427C15.2499 8.62511 15.4647 8.94664 15.6113 9.30051C15.7579 9.65437 15.8333 10.0336 15.8333 10.4167C15.8333 10.7997 15.7579 11.179 15.6113 11.5328C15.4647 11.8867 15.2499 12.2082 14.9791 12.4791C14.7082 12.7499 14.3867 12.9647 14.0328 13.1113C13.679 13.2579 13.2997 13.3333 12.9167 13.3333C12.5336 13.3333 12.1544 13.2579 11.8005 13.1113C11.4466 12.9647 11.1251 12.7499 10.8543 12.4791C10.5834 12.2082 10.3686 11.8867 10.222 11.5328C10.0754 11.179 10 10.7997 10 10.4167Z" stroke="#068FFF" stroke-width="2" stroke-linecap="round" stroke-linejoin="round"/>
<path d="M4.16675 16.25C4.16675 15.4765 4.47404 14.7346 5.02102 14.1876C5.568 13.6407 6.30987 13.3334 7.08342 13.3334H10.0001V16.25C10.0001 17.0236 9.69279 17.7655 9.14581 18.3124C8.59883 18.8594 7.85696 19.1667 7.08342 19.1667C6.30987 19.1667 5.568 18.8594 5.02102 18.3124C4.47404 17.7655 4.16675 17.0236 4.16675 16.25Z" stroke="#068FFF" stroke-width="2" stroke-linecap="round" stroke-linejoin="round"/>
<path d="M4.16675 10.4167C4.16675 9.64312 4.47404 8.90125 5.02102 8.35427C5.568 7.80729 6.30987 7.5 7.08342 7.5H10.0001V13.3333H7.08342C6.30987 13.3333 5.568 13.026 5.02102 12.4791C4.47404 11.9321 4.16675 11.1902 4.16675 10.4167Z" stroke="#068FFF" stroke-width="2" stroke-linecap="round" stroke-linejoin="round"/>
</g>
<defs>
<clipPath id="clip0_6_6711">
<rect width="20" height="20" fill="white"/>
</clipPath>
</defs>
</svg>
