<svg width="17" height="17" viewBox="0 0 17 17" fill="none" xmlns="http://www.w3.org/2000/svg">
<path d="M16 8.08335C16.0028 9.18323 15.7459 10.2682 15.25 11.25C14.662 12.4265 13.7581 13.416 12.6395 14.1077C11.5209 14.7995 10.2319 15.1662 8.91665 15.1667C7.81677 15.1695 6.73175 14.9126 5.74999 14.4167L1 16L2.58333 11.25C2.08744 10.2682 1.83046 9.18323 1.83333 8.08335C1.83384 6.76815 2.20051 5.47906 2.89226 4.36048C3.58402 3.24189 4.57354 2.33799 5.74999 1.75002C6.73175 1.25413 7.81677 0.997156 8.91665 1.00002H9.33332C11.0703 1.09585 12.7109 1.82899 13.9409 3.05907C15.171 4.28915 15.9041 5.92973 16 7.66668V8.08335Z" stroke="#068FFF" stroke-width="2" stroke-linecap="round" stroke-linejoin="round"/>
</svg>
