<svg width="20" height="20" viewBox="0 0 20 20" fill="none" xmlns="http://www.w3.org/2000/svg">
<g clip-path="url(#clip0_6_6728)">
<path d="M5.83341 9.16663L9.16675 1.66663C9.82979 1.66663 10.4657 1.93002 10.9345 2.39886C11.4034 2.8677 11.6667 3.50358 11.6667 4.16663V7.49996H16.3834C16.625 7.49722 16.8643 7.54705 17.0847 7.64597C17.3051 7.7449 17.5014 7.89057 17.66 8.07289C17.8185 8.25521 17.9355 8.46981 18.0029 8.70184C18.0702 8.93386 18.0863 9.17776 18.0501 9.41663L16.9001 16.9166C16.8398 17.314 16.6379 17.6763 16.3317 17.9366C16.0254 18.197 15.6354 18.3378 15.2334 18.3333H5.83341M5.83341 9.16663V18.3333M5.83341 9.16663H3.33341C2.89139 9.16663 2.46746 9.34222 2.1549 9.65478C1.84234 9.96734 1.66675 10.3913 1.66675 10.8333V16.6666C1.66675 17.1087 1.84234 17.5326 2.1549 17.8451C2.46746 18.1577 2.89139 18.3333 3.33341 18.3333H5.83341" stroke="#068FFF" stroke-width="2" stroke-linecap="round" stroke-linejoin="round"/>
</g>
<defs>
<clipPath id="clip0_6_6728">
<rect width="20" height="20" fill="white"/>
</clipPath>
</defs>
</svg>
